<svg id="visual" viewBox="0 0 900 600" width="900" height="600" xmlns="http://www.w3.org/2000/svg" xmlns:xlink="http://www.w3.org/1999/xlink" version="1.1"><rect x="0" y="0" width="900" height="600" fill="#000000"></rect><path d="M0 410L129 363L257 407L386 350L514 349L643 407L771 400L900 360L900 601L771 601L643 601L514 601L386 601L257 601L129 601L0 601Z" fill="#3262af"></path><path d="M0 418L129 419L257 479L386 440L514 474L643 408L771 410L900 472L900 601L771 601L643 601L514 601L386 601L257 601L129 601L0 601Z" fill="#254b83"></path><path d="M0 447L129 485L257 481L386 460L514 454L643 445L771 487L900 500L900 601L771 601L643 601L514 601L386 601L257 601L129 601L0 601Z" fill="#1c355a"></path><path d="M0 537L129 530L257 485L386 523L514 529L643 482L771 523L900 539L900 601L771 601L643 601L514 601L386 601L257 601L129 601L0 601Z" fill="#132034"></path><path d="M0 538L129 543L257 555L386 528L514 549L643 573L771 551L900 548L900 601L771 601L643 601L514 601L386 601L257 601L129 601L0 601Z" fill="#030711"></path></svg>