<svg id="visual" viewBox="0 0 900 600" width="900" height="600" xmlns="http://www.w3.org/2000/svg" xmlns:xlink="http://www.w3.org/1999/xlink" version="1.1"><rect x="0" y="0" width="900" height="600" fill="#000000"></rect><path d="M0 338L129 371L257 396L386 396L514 426L643 404L771 405L900 365L900 601L771 601L643 601L514 601L386 601L257 601L129 601L0 601Z" fill="#3262af"></path><path d="M0 439L129 378L257 447L386 422L514 354L643 428L771 363L900 423L900 601L771 601L643 601L514 601L386 601L257 601L129 601L0 601Z" fill="#5474b9"></path><path d="M0 431L129 429L257 445L386 398L514 441L643 381L771 394L900 425L900 601L771 601L643 601L514 601L386 601L257 601L129 601L0 601Z" fill="#6f86c3"></path><path d="M0 421L129 460L257 472L386 428L514 431L643 457L771 409L900 414L900 601L771 601L643 601L514 601L386 601L257 601L129 601L0 601Z" fill="#8999cd"></path><path d="M0 437L129 440L257 458L386 460L514 457L643 437L771 477L900 447L900 601L771 601L643 601L514 601L386 601L257 601L129 601L0 601Z" fill="#a1add7"></path><path d="M0 512L129 479L257 484L386 506L514 495L643 476L771 473L900 474L900 601L771 601L643 601L514 601L386 601L257 601L129 601L0 601Z" fill="#b9c1e1"></path><path d="M0 542L129 539L257 516L386 548L514 544L643 535L771 531L900 523L900 601L771 601L643 601L514 601L386 601L257 601L129 601L0 601Z" fill="#d0d5eb"></path><path d="M0 544L129 539L257 549L386 526L514 569L643 542L771 550L900 532L900 601L771 601L643 601L514 601L386 601L257 601L129 601L0 601Z" fill="#e8eaf5"></path><path d="M0 571L129 568L257 587L386 564L514 574L643 550L771 555L900 554L900 601L771 601L643 601L514 601L386 601L257 601L129 601L0 601Z" fill="#ffffff"></path></svg>