<svg id="visual" viewBox="0 0 900 600" width="900" height="600" xmlns="http://www.w3.org/2000/svg" xmlns:xlink="http://www.w3.org/1999/xlink" version="1.1"><path d="M0 79L7.5 84C15 89 30 99 45 102C60 105 75 101 90 95C105 89 120 81 135 89C150 97 165 121 180 125C195 129 210 113 225 109C240 105 255 113 270 104C285 95 300 69 315 79C330 89 345 135 360 150C375 165 390 149 405 144C420 139 435 145 450 129C465 113 480 75 495 61C510 47 525 57 540 71C555 85 570 103 585 112C600 121 615 121 630 127C645 133 660 145 675 132C690 119 705 81 720 71C735 61 750 79 765 95C780 111 795 125 810 128C825 131 840 123 855 121C870 119 885 123 892.5 125L900 127L900 0L892.5 0C885 0 870 0 855 0C840 0 825 0 810 0C795 0 780 0 765 0C750 0 735 0 720 0C705 0 690 0 675 0C660 0 645 0 630 0C615 0 600 0 585 0C570 0 555 0 540 0C525 0 510 0 495 0C480 0 465 0 450 0C435 0 420 0 405 0C390 0 375 0 360 0C345 0 330 0 315 0C300 0 285 0 270 0C255 0 240 0 225 0C210 0 195 0 180 0C165 0 150 0 135 0C120 0 105 0 90 0C75 0 60 0 45 0C30 0 15 0 7.5 0L0 0Z" fill="#000000"></path><path d="M0 181L7.5 177C15 173 30 165 45 161C60 157 75 157 90 151C105 145 120 133 135 139C150 145 165 169 180 174C195 179 210 165 225 171C240 177 255 203 270 202C285 201 300 173 315 174C330 175 345 205 360 209C375 213 390 191 405 191C420 191 435 213 450 201C465 189 480 143 495 125C510 107 525 117 540 130C555 143 570 159 585 169C600 179 615 183 630 191C645 199 660 211 675 202C690 193 705 163 720 148C735 133 750 133 765 146C780 159 795 185 810 193C825 201 840 191 855 190C870 189 885 197 892.5 201L900 205L900 125L892.5 123C885 121 870 117 855 119C840 121 825 129 810 126C795 123 780 109 765 93C750 77 735 59 720 69C705 79 690 117 675 130C660 143 645 131 630 125C615 119 600 119 585 110C570 101 555 83 540 69C525 55 510 45 495 59C480 73 465 111 450 127C435 143 420 137 405 142C390 147 375 163 360 148C345 133 330 87 315 77C300 67 285 93 270 102C255 111 240 103 225 107C210 111 195 127 180 123C165 119 150 95 135 87C120 79 105 87 90 93C75 99 60 103 45 100C30 97 15 87 7.5 82L0 77Z" fill="#001857"></path><path d="M0 205L7.5 212C15 219 30 233 45 236C60 239 75 231 90 221C105 211 120 199 135 204C150 209 165 231 180 236C195 241 210 229 225 229C240 229 255 241 270 234C285 227 300 201 315 204C330 207 345 239 360 245C375 251 390 231 405 232C420 233 435 255 450 242C465 229 480 181 495 171C510 161 525 189 540 204C555 219 570 221 585 228C600 235 615 247 630 251C645 255 660 251 675 240C690 229 705 211 720 201C735 191 750 189 765 199C780 209 795 231 810 235C825 239 840 225 855 229C870 233 885 255 892.5 266L900 277L900 203L892.5 199C885 195 870 187 855 188C840 189 825 199 810 191C795 183 780 157 765 144C750 131 735 131 720 146C705 161 690 191 675 200C660 209 645 197 630 189C615 181 600 177 585 167C570 157 555 141 540 128C525 115 510 105 495 123C480 141 465 187 450 199C435 211 420 189 405 189C390 189 375 211 360 207C345 203 330 173 315 172C300 171 285 199 270 200C255 201 240 175 225 169C210 163 195 177 180 172C165 167 150 143 135 137C120 131 105 143 90 149C75 155 60 155 45 159C30 163 15 171 7.5 175L0 179Z" fill="#00296e"></path><path d="M0 343L7.5 358C15 373 30 403 45 400C60 397 75 361 90 337C105 313 120 301 135 332C150 363 165 437 180 465C195 493 210 475 225 456C240 437 255 417 270 386C285 355 300 313 315 303C330 293 345 315 360 320C375 325 390 313 405 336C420 359 435 417 450 430C465 443 480 411 495 395C510 379 525 379 540 387C555 395 570 411 585 407C600 403 615 379 630 364C645 349 660 343 675 350C690 357 705 377 720 386C735 395 750 393 765 384C780 375 795 359 810 353C825 347 840 351 855 362C870 373 885 391 892.5 400L900 409L900 275L892.5 264C885 253 870 231 855 227C840 223 825 237 810 233C795 229 780 207 765 197C750 187 735 189 720 199C705 209 690 227 675 238C660 249 645 253 630 249C615 245 600 233 585 226C570 219 555 217 540 202C525 187 510 159 495 169C480 179 465 227 450 240C435 253 420 231 405 230C390 229 375 249 360 243C345 237 330 205 315 202C300 199 285 225 270 232C255 239 240 227 225 227C210 227 195 239 180 234C165 229 150 207 135 202C120 197 105 209 90 219C75 229 60 237 45 234C30 231 15 217 7.5 210L0 203Z" fill="#0c3c85"></path><path d="M0 457L7.5 471C15 485 30 513 45 509C60 505 75 469 90 443C105 417 120 401 135 419C150 437 165 489 180 511C195 533 210 525 225 508C240 491 255 465 270 440C285 415 300 391 315 381C330 371 345 375 360 379C375 383 390 387 405 408C420 429 435 467 450 485C465 503 480 501 495 499C510 497 525 495 540 491C555 487 570 481 585 464C600 447 615 419 630 403C645 387 660 383 675 391C690 399 705 419 720 438C735 457 750 475 765 468C780 461 795 429 810 424C825 419 840 441 855 462C870 483 885 503 892.5 513L900 523L900 407L892.5 398C885 389 870 371 855 360C840 349 825 345 810 351C795 357 780 373 765 382C750 391 735 393 720 384C705 375 690 355 675 348C660 341 645 347 630 362C615 377 600 401 585 405C570 409 555 393 540 385C525 377 510 377 495 393C480 409 465 441 450 428C435 415 420 357 405 334C390 311 375 323 360 318C345 313 330 291 315 301C300 311 285 353 270 384C255 415 240 435 225 454C210 473 195 491 180 463C165 435 150 361 135 330C120 299 105 311 90 335C75 359 60 395 45 398C30 401 15 371 7.5 356L0 341Z" fill="#1f4f9b"></path><path d="M0 601L7.5 601C15 601 30 601 45 601C60 601 75 601 90 601C105 601 120 601 135 601C150 601 165 601 180 601C195 601 210 601 225 601C240 601 255 601 270 601C285 601 300 601 315 601C330 601 345 601 360 601C375 601 390 601 405 601C420 601 435 601 450 601C465 601 480 601 495 601C510 601 525 601 540 601C555 601 570 601 585 601C600 601 615 601 630 601C645 601 660 601 675 601C690 601 705 601 720 601C735 601 750 601 765 601C780 601 795 601 810 601C825 601 840 601 855 601C870 601 885 601 892.5 601L900 601L900 521L892.5 511C885 501 870 481 855 460C840 439 825 417 810 422C795 427 780 459 765 466C750 473 735 455 720 436C705 417 690 397 675 389C660 381 645 385 630 401C615 417 600 445 585 462C570 479 555 485 540 489C525 493 510 495 495 497C480 499 465 501 450 483C435 465 420 427 405 406C390 385 375 381 360 377C345 373 330 369 315 379C300 389 285 413 270 438C255 463 240 489 225 506C210 523 195 531 180 509C165 487 150 435 135 417C120 399 105 415 90 441C75 467 60 503 45 507C30 511 15 483 7.5 469L0 455Z" fill="#2f63b2"></path></svg>