<svg id="visual" viewBox="0 0 900 600" width="900" height="600" xmlns="http://www.w3.org/2000/svg" xmlns:xlink="http://www.w3.org/1999/xlink" version="1.1"><path d="M0 127L6.5 141C13 155 26 183 39 200C52 217 65 223 78 212C91 201 104 173 117.2 147C130.3 121 143.7 97 156.8 98C170 99 183 125 196 134C209 143 222 135 235 142C248 149 261 171 274 169C287 167 300 141 313 133C326 125 339 135 352 153C365 171 378 197 391 212C404 227 417 231 430.2 214C443.3 197 456.7 159 469.8 152C483 145 496 169 509 174C522 179 535 165 548 141C561 117 574 83 587 84C600 85 613 121 626 129C639 137 652 117 665 136C678 155 691 213 704 208C717 203 730 135 743.2 115C756.3 95 769.7 123 782.8 141C796 159 809 167 822 152C835 137 848 99 861 93C874 87 887 113 893.5 126L900 139L900 0L893.5 0C887 0 874 0 861 0C848 0 835 0 822 0C809 0 796 0 782.8 0C769.7 0 756.3 0 743.2 0C730 0 717 0 704 0C691 0 678 0 665 0C652 0 639 0 626 0C613 0 600 0 587 0C574 0 561 0 548 0C535 0 522 0 509 0C496 0 483 0 469.8 0C456.7 0 443.3 0 430.2 0C417 0 404 0 391 0C378 0 365 0 352 0C339 0 326 0 313 0C300 0 287 0 274 0C261 0 248 0 235 0C222 0 209 0 196 0C183 0 170 0 156.8 0C143.7 0 130.3 0 117.2 0C104 0 91 0 78 0C65 0 52 0 39 0C26 0 13 0 6.5 0L0 0Z" fill="#000000"></path><path d="M0 151L6.5 171C13 191 26 231 39 254C52 277 65 283 78 266C91 249 104 209 117.2 182C130.3 155 143.7 141 156.8 150C170 159 183 191 196 203C209 215 222 207 235 213C248 219 261 239 274 234C287 229 300 199 313 183C326 167 339 165 352 179C365 193 378 223 391 238C404 253 417 253 430.2 243C443.3 233 456.7 213 469.8 215C483 217 496 241 509 245C522 249 535 233 548 204C561 175 574 133 587 125C600 117 613 143 626 151C639 159 652 149 665 181C678 213 691 287 704 288C717 289 730 217 743.2 189C756.3 161 769.7 177 782.8 192C796 207 809 221 822 205C835 189 848 143 861 141C874 139 887 181 893.5 202L900 223L900 137L893.5 124C887 111 874 85 861 91C848 97 835 135 822 150C809 165 796 157 782.8 139C769.7 121 756.3 93 743.2 113C730 133 717 201 704 206C691 211 678 153 665 134C652 115 639 135 626 127C613 119 600 83 587 82C574 81 561 115 548 139C535 163 522 177 509 172C496 167 483 143 469.8 150C456.7 157 443.3 195 430.2 212C417 229 404 225 391 210C378 195 365 169 352 151C339 133 326 123 313 131C300 139 287 165 274 167C261 169 248 147 235 140C222 133 209 141 196 132C183 123 170 97 156.8 96C143.7 95 130.3 119 117.2 145C104 171 91 199 78 210C65 221 52 215 39 198C26 181 13 153 6.5 139L0 125Z" fill="#00032a"></path><path d="M0 229L6.5 246C13 263 26 297 39 323C52 349 65 367 78 356C91 345 104 305 117.2 278C130.3 251 143.7 237 156.8 235C170 233 183 243 196 243C209 243 222 233 235 244C248 255 261 287 274 300C287 313 300 307 313 306C326 305 339 309 352 317C365 325 378 337 391 348C404 359 417 369 430.2 364C443.3 359 456.7 339 469.8 328C483 317 496 315 509 313C522 311 535 309 548 298C561 287 574 267 587 273C600 279 613 311 626 302C639 293 652 243 665 251C678 259 691 325 704 337C717 349 730 307 743.2 287C756.3 267 769.7 269 782.8 273C796 277 809 283 822 275C835 267 848 245 861 242C874 239 887 255 893.5 263L900 271L900 221L893.5 200C887 179 874 137 861 139C848 141 835 187 822 203C809 219 796 205 782.8 190C769.7 175 756.3 159 743.2 187C730 215 717 287 704 286C691 285 678 211 665 179C652 147 639 157 626 149C613 141 600 115 587 123C574 131 561 173 548 202C535 231 522 247 509 243C496 239 483 215 469.8 213C456.7 211 443.3 231 430.2 241C417 251 404 251 391 236C378 221 365 191 352 177C339 163 326 165 313 181C300 197 287 227 274 232C261 237 248 217 235 211C222 205 209 213 196 201C183 189 170 157 156.8 148C143.7 139 130.3 153 117.2 180C104 207 91 247 78 264C65 281 52 275 39 252C26 229 13 189 6.5 169L0 149Z" fill="#000a2e"></path><path d="M0 475L6.5 475C13 475 26 475 39 467C52 459 65 443 78 435C91 427 104 427 117.2 425C130.3 423 143.7 419 156.8 430C170 441 183 467 196 464C209 461 222 429 235 409C248 389 261 381 274 384C287 387 300 401 313 408C326 415 339 415 352 410C365 405 378 395 391 400C404 405 417 425 430.2 435C443.3 445 456.7 445 469.8 449C483 453 496 461 509 454C522 447 535 425 548 426C561 427 574 451 587 469C600 487 613 499 626 490C639 481 652 451 665 446C678 441 691 461 704 466C717 471 730 461 743.2 453C756.3 445 769.7 439 782.8 425C796 411 809 389 822 383C835 377 848 387 861 396C874 405 887 413 893.5 417L900 421L900 269L893.5 261C887 253 874 237 861 240C848 243 835 265 822 273C809 281 796 275 782.8 271C769.7 267 756.3 265 743.2 285C730 305 717 347 704 335C691 323 678 257 665 249C652 241 639 291 626 300C613 309 600 277 587 271C574 265 561 285 548 296C535 307 522 309 509 311C496 313 483 315 469.8 326C456.7 337 443.3 357 430.2 362C417 367 404 357 391 346C378 335 365 323 352 315C339 307 326 303 313 304C300 305 287 311 274 298C261 285 248 253 235 242C222 231 209 241 196 241C183 241 170 231 156.8 233C143.7 235 130.3 249 117.2 276C104 303 91 343 78 354C65 365 52 347 39 321C26 295 13 261 6.5 244L0 227Z" fill="#001032"></path><path d="M0 517L6.5 521C13 525 26 533 39 533C52 533 65 525 78 524C91 523 104 529 117.2 528C130.3 527 143.7 519 156.8 515C170 511 183 511 196 508C209 505 222 499 235 492C248 485 261 477 274 473C287 469 300 469 313 476C326 483 339 497 352 497C365 497 378 483 391 482C404 481 417 493 430.2 500C443.3 507 456.7 509 469.8 507C483 505 496 499 509 483C522 467 535 441 548 442C561 443 574 471 587 494C600 517 613 535 626 530C639 525 652 497 665 488C678 479 691 489 704 492C717 495 730 491 743.2 487C756.3 483 769.7 479 782.8 472C796 465 809 455 822 453C835 451 848 457 861 465C874 473 887 483 893.5 488L900 493L900 419L893.5 415C887 411 874 403 861 394C848 385 835 375 822 381C809 387 796 409 782.8 423C769.7 437 756.3 443 743.2 451C730 459 717 469 704 464C691 459 678 439 665 444C652 449 639 479 626 488C613 497 600 485 587 467C574 449 561 425 548 424C535 423 522 445 509 452C496 459 483 451 469.8 447C456.7 443 443.3 443 430.2 433C417 423 404 403 391 398C378 393 365 403 352 408C339 413 326 413 313 406C300 399 287 385 274 382C261 379 248 387 235 407C222 427 209 459 196 462C183 465 170 439 156.8 428C143.7 417 130.3 421 117.2 423C104 425 91 425 78 433C65 441 52 457 39 465C26 473 13 473 6.5 473L0 473Z" fill="#001436"></path><path d="M0 547L6.5 553C13 559 26 571 39 577C52 583 65 583 78 578C91 573 104 563 117.2 562C130.3 561 143.7 569 156.8 564C170 559 183 541 196 529C209 517 222 511 235 508C248 505 261 505 274 512C287 519 300 533 313 543C326 553 339 559 352 556C365 553 378 541 391 535C404 529 417 529 430.2 537C443.3 545 456.7 561 469.8 557C483 553 496 529 509 514C522 499 535 493 548 503C561 513 574 539 587 553C600 567 613 569 626 565C639 561 652 551 665 541C678 531 691 521 704 517C717 513 730 515 743.2 521C756.3 527 769.7 537 782.8 538C796 539 809 531 822 527C835 523 848 523 861 528C874 533 887 543 893.5 548L900 553L900 491L893.5 486C887 481 874 471 861 463C848 455 835 449 822 451C809 453 796 463 782.8 470C769.7 477 756.3 481 743.2 485C730 489 717 493 704 490C691 487 678 477 665 486C652 495 639 523 626 528C613 533 600 515 587 492C574 469 561 441 548 440C535 439 522 465 509 481C496 497 483 503 469.8 505C456.7 507 443.3 505 430.2 498C417 491 404 479 391 480C378 481 365 495 352 495C339 495 326 481 313 474C300 467 287 467 274 471C261 475 248 483 235 490C222 497 209 503 196 506C183 509 170 509 156.8 513C143.7 517 130.3 525 117.2 526C104 527 91 521 78 522C65 523 52 531 39 531C26 531 13 523 6.5 519L0 515Z" fill="#021839"></path><path d="M0 601L6.5 601C13 601 26 601 39 601C52 601 65 601 78 601C91 601 104 601 117.2 601C130.3 601 143.7 601 156.8 601C170 601 183 601 196 601C209 601 222 601 235 601C248 601 261 601 274 601C287 601 300 601 313 601C326 601 339 601 352 601C365 601 378 601 391 601C404 601 417 601 430.2 601C443.3 601 456.7 601 469.8 601C483 601 496 601 509 601C522 601 535 601 548 601C561 601 574 601 587 601C600 601 613 601 626 601C639 601 652 601 665 601C678 601 691 601 704 601C717 601 730 601 743.2 601C756.3 601 769.7 601 782.8 601C796 601 809 601 822 601C835 601 848 601 861 601C874 601 887 601 893.5 601L900 601L900 551L893.5 546C887 541 874 531 861 526C848 521 835 521 822 525C809 529 796 537 782.8 536C769.7 535 756.3 525 743.2 519C730 513 717 511 704 515C691 519 678 529 665 539C652 549 639 559 626 563C613 567 600 565 587 551C574 537 561 511 548 501C535 491 522 497 509 512C496 527 483 551 469.8 555C456.7 559 443.3 543 430.2 535C417 527 404 527 391 533C378 539 365 551 352 554C339 557 326 551 313 541C300 531 287 517 274 510C261 503 248 503 235 506C222 509 209 515 196 527C183 539 170 557 156.8 562C143.7 567 130.3 559 117.2 560C104 561 91 571 78 576C65 581 52 581 39 575C26 569 13 557 6.5 551L0 545Z" fill="#041b3d"></path></svg>